# xmcd
#
# Track frame offsets:
#	150
#	12136
#	24035
#	46391
#	58645
#	75738
#	93545
#	108905
#	123268
#	151933
#	169635
#
# Disc length: 2372 seconds
#
# Revision: 1
# Processed by: cddbd v1.5.2PL0 Copyright (c) Steve Scherf et al.
# Submitted via: audiograbber 1.83.01
#
DISCID=7409420b
DTITLE=Joe Colombo - Deltachrome
DYEAR=2009
DGENRE=Blues
TTITLE0=Deltachrome
TTITLE1=Justify
TTITLE2=Big River Blues
TTITLE3=Tell Me
TTITLE4=It's Comin'
TTITLE5=By My Side
TTITLE6=Be My Baby
TTITLE7=Upside Down Blues
TTITLE8=Southern Lullaby
TTITLE9=Cold Night
TTITLE10=The Farm Song
EXTD=
EXTT0=
EXTT1=
EXTT2=
EXTT3=
EXTT4=
EXTT5=
EXTT6=
EXTT7=
EXTT8=
EXTT9=
EXTT10=
PLAYORDER=
